<svg xmlns="http://www.w3.org/2000/svg" width="880" height="424" viewBox="0 0 880 424">
  <style>
    .verdict { font: 600 18px "Segoe UI", Ubuntu, sans-serif; fill: #b5471f; }
    .subtext { font: 400 12px "Segoe UI", Ubuntu, sans-serif; fill: #6f6a5f; }
    .label   { font: 600 13px "Segoe UI", Ubuntu, sans-serif; fill: #20242c; }
    .count   { font: 600 13px "Segoe UI", Ubuntu, sans-serif; fill: #b5471f; }
    .pct     { font: 400 13px "Segoe UI", Ubuntu, sans-serif; fill: #6f6a5f; }
    .marker  { font: 600 11px "Segoe UI", Ubuntu, sans-serif; fill: #6f6a5f; }
  </style>
  <rect width="880" height="424" rx="10" fill="#fdfaf4" stroke="#e3d9c6" stroke-width="1" />
  <text x="24" y="36" class="verdict">I'm an early bird 🐤</text>
  <text x="24" y="58" class="subtext">last 300 commits by local time (America/Chicago)</text>
  <circle cx="250" cy="240" r="145" fill="none" stroke="#ece5d4" stroke-width="1" />
  <circle cx="250" cy="240" r="96.7" fill="none" stroke="#ece5d4" stroke-width="1" />
  <circle cx="250" cy="240" r="48.3" fill="none" stroke="#ece5d4" stroke-width="1" />
  <line x1="105" y1="240" x2="395" y2="240" stroke="#ece5d4" stroke-width="1" opacity="0.6" />
  <line x1="250" y1="95" x2="250" y2="385" stroke="#ece5d4" stroke-width="1" opacity="0.6" />
  <line x1="250" y1="99" x2="250" y2="95" stroke="#6f6a5f" stroke-width="1" opacity="0.5" />
  <line x1="286.5" y1="103.8" x2="287.5" y2="99.9" stroke="#6f6a5f" stroke-width="1" opacity="0.5" />
  <line x1="320.5" y1="117.9" x2="322.5" y2="114.4" stroke="#6f6a5f" stroke-width="1" opacity="0.5" />
  <line x1="349.7" y1="140.3" x2="352.5" y2="137.5" stroke="#6f6a5f" stroke-width="1" opacity="0.5" />
  <line x1="372.1" y1="169.5" x2="375.6" y2="167.5" stroke="#6f6a5f" stroke-width="1" opacity="0.5" />
  <line x1="386.2" y1="203.5" x2="390.1" y2="202.5" stroke="#6f6a5f" stroke-width="1" opacity="0.5" />
  <line x1="391" y1="240" x2="395" y2="240" stroke="#6f6a5f" stroke-width="1" opacity="0.5" />
  <line x1="386.2" y1="276.5" x2="390.1" y2="277.5" stroke="#6f6a5f" stroke-width="1" opacity="0.5" />
  <line x1="372.1" y1="310.5" x2="375.6" y2="312.5" stroke="#6f6a5f" stroke-width="1" opacity="0.5" />
  <line x1="349.7" y1="339.7" x2="352.5" y2="342.5" stroke="#6f6a5f" stroke-width="1" opacity="0.5" />
  <line x1="320.5" y1="362.1" x2="322.5" y2="365.6" stroke="#6f6a5f" stroke-width="1" opacity="0.5" />
  <line x1="286.5" y1="376.2" x2="287.5" y2="380.1" stroke="#6f6a5f" stroke-width="1" opacity="0.5" />
  <line x1="250" y1="381" x2="250" y2="385" stroke="#6f6a5f" stroke-width="1" opacity="0.5" />
  <line x1="213.5" y1="376.2" x2="212.5" y2="380.1" stroke="#6f6a5f" stroke-width="1" opacity="0.5" />
  <line x1="179.5" y1="362.1" x2="177.5" y2="365.6" stroke="#6f6a5f" stroke-width="1" opacity="0.5" />
  <line x1="150.3" y1="339.7" x2="147.5" y2="342.5" stroke="#6f6a5f" stroke-width="1" opacity="0.5" />
  <line x1="127.9" y1="310.5" x2="124.4" y2="312.5" stroke="#6f6a5f" stroke-width="1" opacity="0.5" />
  <line x1="113.8" y1="276.5" x2="109.9" y2="277.5" stroke="#6f6a5f" stroke-width="1" opacity="0.5" />
  <line x1="109" y1="240" x2="105" y2="240" stroke="#6f6a5f" stroke-width="1" opacity="0.5" />
  <line x1="113.8" y1="203.5" x2="109.9" y2="202.5" stroke="#6f6a5f" stroke-width="1" opacity="0.5" />
  <line x1="127.9" y1="169.5" x2="124.4" y2="167.5" stroke="#6f6a5f" stroke-width="1" opacity="0.5" />
  <line x1="150.3" y1="140.3" x2="147.5" y2="137.5" stroke="#6f6a5f" stroke-width="1" opacity="0.5" />
  <line x1="179.5" y1="117.9" x2="177.5" y2="114.4" stroke="#6f6a5f" stroke-width="1" opacity="0.5" />
  <line x1="213.5" y1="103.8" x2="212.5" y2="99.9" stroke="#6f6a5f" stroke-width="1" opacity="0.5" />
  <line x1="250" y1="218" x2="250" y2="201.1" stroke="#d76233" stroke-width="8" stroke-linecap="round" opacity="0.45" />
  <line x1="250" y1="218" x2="250" y2="201.1" stroke="#b5471f" stroke-width="8" stroke-linecap="round" opacity="0">
    <animate attributeName="opacity" values="1;0.25;0" keyTimes="0;0.3;1" dur="12s" begin="0s" repeatCount="indefinite" />
  </line>
  <line x1="255.7" y1="218.7" x2="263.6" y2="189.3" stroke="#d76233" stroke-width="8" stroke-linecap="round" opacity="0.45" />
  <line x1="255.7" y1="218.7" x2="263.6" y2="189.3" stroke="#b5471f" stroke-width="8" stroke-linecap="round" opacity="0">
    <animate attributeName="opacity" values="1;0.25;0" keyTimes="0;0.3;1" dur="12s" begin="0.5s" repeatCount="indefinite" />
  </line>
  <line x1="261" y1="220.9" x2="281.3" y2="185.8" stroke="#d76233" stroke-width="8" stroke-linecap="round" opacity="0.45" />
  <line x1="261" y1="220.9" x2="281.3" y2="185.8" stroke="#b5471f" stroke-width="8" stroke-linecap="round" opacity="0">
    <animate attributeName="opacity" values="1;0.25;0" keyTimes="0;0.3;1" dur="12s" begin="1s" repeatCount="indefinite" />
  </line>
  <line x1="265.6" y1="224.4" x2="277.5" y2="212.5" stroke="#d76233" stroke-width="8" stroke-linecap="round" opacity="0.45" />
  <line x1="265.6" y1="224.4" x2="277.5" y2="212.5" stroke="#b5471f" stroke-width="8" stroke-linecap="round" opacity="0">
    <animate attributeName="opacity" values="1;0.25;0" keyTimes="0;0.3;1" dur="12s" begin="1.5s" repeatCount="indefinite" />
  </line>
  <line x1="269.1" y1="229" x2="324.7" y2="196.9" stroke="#d76233" stroke-width="8" stroke-linecap="round" opacity="0.45" />
  <line x1="269.1" y1="229" x2="324.7" y2="196.9" stroke="#b5471f" stroke-width="8" stroke-linecap="round" opacity="0">
    <animate attributeName="opacity" values="1;0.25;0" keyTimes="0;0.3;1" dur="12s" begin="2s" repeatCount="indefinite" />
  </line>
  <line x1="271.3" y1="234.3" x2="313.7" y2="222.9" stroke="#d76233" stroke-width="8" stroke-linecap="round" opacity="0.45" />
  <line x1="271.3" y1="234.3" x2="313.7" y2="222.9" stroke="#b5471f" stroke-width="8" stroke-linecap="round" opacity="0">
    <animate attributeName="opacity" values="1;0.25;0" keyTimes="0;0.3;1" dur="12s" begin="2.5s" repeatCount="indefinite" />
  </line>
  <line x1="272" y1="240" x2="332.9" y2="240" stroke="#d76233" stroke-width="8" stroke-linecap="round" opacity="0.45" />
  <line x1="272" y1="240" x2="332.9" y2="240" stroke="#b5471f" stroke-width="8" stroke-linecap="round" opacity="0">
    <animate attributeName="opacity" values="1;0.25;0" keyTimes="0;0.3;1" dur="12s" begin="3s" repeatCount="indefinite" />
  </line>
  <line x1="271.3" y1="245.7" x2="330.1" y2="261.5" stroke="#d76233" stroke-width="8" stroke-linecap="round" opacity="0.45" />
  <line x1="271.3" y1="245.7" x2="330.1" y2="261.5" stroke="#b5471f" stroke-width="8" stroke-linecap="round" opacity="0">
    <animate attributeName="opacity" values="1;0.25;0" keyTimes="0;0.3;1" dur="12s" begin="3.5s" repeatCount="indefinite" />
  </line>
  <line x1="269.1" y1="251" x2="295.4" y2="266.2" stroke="#d76233" stroke-width="8" stroke-linecap="round" opacity="0.45" />
  <line x1="269.1" y1="251" x2="295.4" y2="266.2" stroke="#b5471f" stroke-width="8" stroke-linecap="round" opacity="0">
    <animate attributeName="opacity" values="1;0.25;0" keyTimes="0;0.3;1" dur="12s" begin="4s" repeatCount="indefinite" />
  </line>
  <line x1="265.6" y1="255.6" x2="299" y2="289" stroke="#d76233" stroke-width="8" stroke-linecap="round" opacity="0.45" />
  <line x1="265.6" y1="255.6" x2="299" y2="289" stroke="#b5471f" stroke-width="8" stroke-linecap="round" opacity="0">
    <animate attributeName="opacity" values="1;0.25;0" keyTimes="0;0.3;1" dur="12s" begin="4.5s" repeatCount="indefinite" />
  </line>
  <line x1="261" y1="259.1" x2="277.9" y2="288.3" stroke="#d76233" stroke-width="8" stroke-linecap="round" opacity="0.45" />
  <line x1="261" y1="259.1" x2="277.9" y2="288.3" stroke="#b5471f" stroke-width="8" stroke-linecap="round" opacity="0">
    <animate attributeName="opacity" values="1;0.25;0" keyTimes="0;0.3;1" dur="12s" begin="5s" repeatCount="indefinite" />
  </line>
  <line x1="255.7" y1="261.3" x2="271.5" y2="320.1" stroke="#d76233" stroke-width="8" stroke-linecap="round" opacity="0.45" />
  <line x1="255.7" y1="261.3" x2="271.5" y2="320.1" stroke="#b5471f" stroke-width="8" stroke-linecap="round" opacity="0">
    <animate attributeName="opacity" values="1;0.25;0" keyTimes="0;0.3;1" dur="12s" begin="5.5s" repeatCount="indefinite" />
  </line>
  <line x1="250" y1="262" x2="250" y2="285.7" stroke="#d76233" stroke-width="8" stroke-linecap="round" opacity="0.45" />
  <line x1="250" y1="262" x2="250" y2="285.7" stroke="#b5471f" stroke-width="8" stroke-linecap="round" opacity="0">
    <animate attributeName="opacity" values="1;0.25;0" keyTimes="0;0.3;1" dur="12s" begin="6s" repeatCount="indefinite" />
  </line>
  <line x1="244.3" y1="261.3" x2="214.5" y2="372.3" stroke="#d76233" stroke-width="8" stroke-linecap="round" opacity="0.45" />
  <line x1="244.3" y1="261.3" x2="214.5" y2="372.3" stroke="#b5471f" stroke-width="8" stroke-linecap="round" opacity="0">
    <animate attributeName="opacity" values="1;0.25;0" keyTimes="0;0.3;1" dur="12s" begin="6.5s" repeatCount="indefinite" />
  </line>
  <line x1="239" y1="259.1" x2="205.2" y2="317.6" stroke="#d76233" stroke-width="8" stroke-linecap="round" opacity="0.45" />
  <line x1="239" y1="259.1" x2="205.2" y2="317.6" stroke="#b5471f" stroke-width="8" stroke-linecap="round" opacity="0">
    <animate attributeName="opacity" values="1;0.25;0" keyTimes="0;0.3;1" dur="12s" begin="7s" repeatCount="indefinite" />
  </line>
  <line x1="234.4" y1="255.6" x2="205.7" y2="284.3" stroke="#d76233" stroke-width="8" stroke-linecap="round" opacity="0.45" />
  <line x1="234.4" y1="255.6" x2="205.7" y2="284.3" stroke="#b5471f" stroke-width="8" stroke-linecap="round" opacity="0">
    <animate attributeName="opacity" values="1;0.25;0" keyTimes="0;0.3;1" dur="12s" begin="7.5s" repeatCount="indefinite" />
  </line>
  <line x1="230.9" y1="251" x2="213.4" y2="261.1" stroke="#d76233" stroke-width="8" stroke-linecap="round" opacity="0.45" />
  <line x1="230.9" y1="251" x2="213.4" y2="261.1" stroke="#b5471f" stroke-width="8" stroke-linecap="round" opacity="0">
    <animate attributeName="opacity" values="1;0.25;0" keyTimes="0;0.3;1" dur="12s" begin="8s" repeatCount="indefinite" />
  </line>
  <line x1="228.7" y1="245.7" x2="176.5" y2="259.7" stroke="#d76233" stroke-width="8" stroke-linecap="round" opacity="0.45" />
  <line x1="228.7" y1="245.7" x2="176.5" y2="259.7" stroke="#b5471f" stroke-width="8" stroke-linecap="round" opacity="0">
    <animate attributeName="opacity" values="1;0.25;0" keyTimes="0;0.3;1" dur="12s" begin="8.5s" repeatCount="indefinite" />
  </line>
  <line x1="228" y1="240" x2="217.9" y2="240" stroke="#d76233" stroke-width="8" stroke-linecap="round" opacity="0.45" />
  <line x1="228" y1="240" x2="217.9" y2="240" stroke="#b5471f" stroke-width="8" stroke-linecap="round" opacity="0">
    <animate attributeName="opacity" values="1;0.25;0" keyTimes="0;0.3;1" dur="12s" begin="9s" repeatCount="indefinite" />
  </line>
  <line x1="228.7" y1="234.3" x2="205.9" y2="228.2" stroke="#d76233" stroke-width="8" stroke-linecap="round" opacity="0.45" />
  <line x1="228.7" y1="234.3" x2="205.9" y2="228.2" stroke="#b5471f" stroke-width="8" stroke-linecap="round" opacity="0">
    <animate attributeName="opacity" values="1;0.25;0" keyTimes="0;0.3;1" dur="12s" begin="9.5s" repeatCount="indefinite" />
  </line>
  <line x1="230.9" y1="229" x2="201.7" y2="212.1" stroke="#d76233" stroke-width="8" stroke-linecap="round" opacity="0.45" />
  <line x1="230.9" y1="229" x2="201.7" y2="212.1" stroke="#b5471f" stroke-width="8" stroke-linecap="round" opacity="0">
    <animate attributeName="opacity" values="1;0.25;0" keyTimes="0;0.3;1" dur="12s" begin="10s" repeatCount="indefinite" />
  </line>
  <line x1="234.4" y1="224.4" x2="191.4" y2="181.4" stroke="#d76233" stroke-width="8" stroke-linecap="round" opacity="0.45" />
  <line x1="234.4" y1="224.4" x2="191.4" y2="181.4" stroke="#b5471f" stroke-width="8" stroke-linecap="round" opacity="0">
    <animate attributeName="opacity" values="1;0.25;0" keyTimes="0;0.3;1" dur="12s" begin="10.5s" repeatCount="indefinite" />
  </line>
  <line x1="239" y1="220.9" x2="227.2" y2="200.4" stroke="#d76233" stroke-width="8" stroke-linecap="round" opacity="0.45" />
  <line x1="239" y1="220.9" x2="227.2" y2="200.4" stroke="#b5471f" stroke-width="8" stroke-linecap="round" opacity="0">
    <animate attributeName="opacity" values="1;0.25;0" keyTimes="0;0.3;1" dur="12s" begin="11s" repeatCount="indefinite" />
  </line>
  <line x1="244.3" y1="218.7" x2="235.6" y2="186.1" stroke="#d76233" stroke-width="8" stroke-linecap="round" opacity="0.45" />
  <line x1="244.3" y1="218.7" x2="235.6" y2="186.1" stroke="#b5471f" stroke-width="8" stroke-linecap="round" opacity="0">
    <animate attributeName="opacity" values="1;0.25;0" keyTimes="0;0.3;1" dur="12s" begin="11.5s" repeatCount="indefinite" />
  </line>
  <g>
    <path d="M 250 240 L 224.8 97.2 A 145 145 0 0 1 250 95 Z" fill="#b5471f" opacity="0.3" />
    <path d="M 250 240 L 200.4 103.7 A 145 145 0 0 1 224.8 97.2 Z" fill="#b5471f" opacity="0.18" />
    <path d="M 250 240 L 177.5 114.4 A 145 145 0 0 1 200.4 103.7 Z" fill="#b5471f" opacity="0.1" />
    <path d="M 250 240 L 156.8 128.9 A 145 145 0 0 1 177.5 114.4 Z" fill="#b5471f" opacity="0.04" />
    <line x1="250" y1="240" x2="250" y2="95" stroke="#b5471f" stroke-width="2" />
    <animateTransform attributeName="transform" type="rotate" from="0 250 240" to="360 250 240" dur="12s" repeatCount="indefinite" />
  </g>
  <text x="250" y="85" text-anchor="middle" class="marker">00</text>
  <text x="409" y="244" text-anchor="middle" class="marker">06</text>
  <text x="250" y="403" text-anchor="middle" class="marker">12</text>
  <text x="91" y="244" text-anchor="middle" class="marker">18</text>
  <text x="520" y="177" class="label">🌅 Morning</text>
  <rect x="650" y="164" width="100" height="16" rx="8" fill="#ece5d4" />
  <rect x="650" y="164" width="92" height="16" rx="8" fill="#d76233" />
  <text x="764" y="177" class="count">87</text>
  <text x="856" y="177" text-anchor="end" class="pct">29.0%</text>
  <text x="520" y="219" class="label">🏙 Daytime</text>
  <rect x="650" y="206" width="100" height="16" rx="8" fill="#ece5d4" />
  <rect x="650" y="206" width="100" height="16" rx="8" fill="#c08a52" />
  <text x="764" y="219" class="count">95</text>
  <text x="856" y="219" text-anchor="end" class="pct">31.7%</text>
  <text x="520" y="261" class="label">🌆 Evening</text>
  <rect x="650" y="248" width="100" height="16" rx="8" fill="#ece5d4" />
  <rect x="650" y="248" width="58" height="16" rx="8" fill="#d76233" />
  <text x="764" y="261" class="count">55</text>
  <text x="856" y="261" text-anchor="end" class="pct">18.3%</text>
  <text x="520" y="303" class="label">🌙 Night</text>
  <rect x="650" y="290" width="100" height="16" rx="8" fill="#ece5d4" />
  <rect x="650" y="290" width="66" height="16" rx="8" fill="#c08a52" />
  <text x="764" y="303" class="count">63</text>
  <text x="856" y="303" text-anchor="end" class="pct">21.0%</text>
</svg>
